<svg width="24" height="24" viewBox="0 0 24 24" fill="none" xmlns="http://www.w3.org/2000/svg">
<path d="M6.18003 22.4999C5.99457 22.5005 5.81132 22.4596 5.64368 22.3803C5.47603 22.301 5.32823 22.1852 5.21106 22.0414C5.09389 21.8977 5.01032 21.7295 4.96646 21.5493C4.9226 21.3691 4.91955 21.1814 4.95753 20.9999L5.95503 15.1649L1.71753 11.0474C1.5515 10.8852 1.43411 10.6798 1.37863 10.4544C1.32314 10.229 1.33176 9.99262 1.40352 9.77189C1.47528 9.55115 1.60732 9.35486 1.78473 9.20519C1.96214 9.05552 2.17786 8.95843 2.40753 8.92487L8.25003 8.07737L10.8675 2.76737C10.9685 2.55443 11.1278 2.37452 11.3269 2.24853C11.5261 2.12254 11.7569 2.05566 11.9925 2.05566C12.2282 2.05566 12.459 2.12254 12.6581 2.24853C12.8573 2.37452 13.0166 2.55443 13.1175 2.76737L15.75 8.07737L21.6075 8.93237C21.8372 8.96593 22.0529 9.06302 22.2303 9.21269C22.4077 9.36236 22.5398 9.55864 22.6115 9.77938C22.6833 10.0001 22.6919 10.2365 22.6364 10.4619C22.581 10.6873 22.4636 10.8927 22.2975 11.0549L18.06 15.1874L19.0425 20.9999C19.0817 21.2275 19.0567 21.4616 18.9703 21.6759C18.884 21.8902 18.7398 22.0762 18.5538 22.2132C18.3677 22.3502 18.1473 22.4327 17.917 22.4516C17.6868 22.4704 17.4558 22.4248 17.25 22.3199L12 19.5674L6.75003 22.3199C6.5776 22.4255 6.38189 22.4874 6.18003 22.4999ZM3.14253 10.3349L7.10253 14.1974C7.24804 14.3378 7.35693 14.5116 7.41969 14.7038C7.48244 14.896 7.49716 15.1007 7.46253 15.2999L6.52503 20.7449L11.4225 18.1724C11.6007 18.0791 11.7989 18.0303 12 18.0303C12.2012 18.0303 12.3993 18.0791 12.5775 18.1724L17.475 20.7449L16.5375 15.2924C16.5029 15.0932 16.5176 14.8885 16.5804 14.6963C16.6431 14.5041 16.752 14.3302 16.8975 14.1899L20.8575 10.3274L15.3825 9.53237C15.1826 9.50321 14.9928 9.42584 14.8295 9.30694C14.6661 9.18803 14.5342 9.03116 14.445 8.84987L12 3.89987L9.55503 8.85737C9.46587 9.03866 9.33393 9.19553 9.1706 9.31444C9.00726 9.43334 8.81745 9.51071 8.61753 9.53987L3.14253 10.3349Z" fill="#F66F4D"/>
<path d="M12.4425 3.09725L15.12 8.52725C15.1552 8.59842 15.2069 8.6601 15.2708 8.70709C15.3348 8.75408 15.4091 8.785 15.4875 8.79725L21.4875 9.66725C21.5756 9.6838 21.6575 9.72395 21.7245 9.78341C21.7916 9.84287 21.8412 9.91941 21.8682 10.0049C21.8951 10.0903 21.8983 10.1815 21.8775 10.2686C21.8567 10.3558 21.8127 10.4357 21.75 10.4997L17.415 14.7222C17.358 14.7779 17.3153 14.8466 17.2905 14.9223C17.2657 14.998 17.2595 15.0786 17.2725 15.1572L18.2925 21.1572C18.3121 21.2524 18.3031 21.3512 18.2669 21.4414C18.2307 21.5315 18.1687 21.609 18.0887 21.6641C18.0088 21.7193 17.9144 21.7497 17.8172 21.7516C17.7201 21.7535 17.6246 21.7268 17.5425 21.6747L12.1875 18.8547C12.1169 18.8179 12.0384 18.7987 11.9588 18.7987C11.8791 18.7987 11.8007 18.8179 11.73 18.8547L6.41253 21.6522C6.33049 21.7043 6.23495 21.731 6.13782 21.7291C6.0407 21.7272 5.94627 21.6968 5.86631 21.6416C5.78635 21.5865 5.72439 21.509 5.68816 21.4189C5.65192 21.3287 5.64301 21.2299 5.66253 21.1347L6.68253 15.1347C6.69555 15.0561 6.68939 14.9755 6.66458 14.8998C6.63977 14.8241 6.59705 14.7554 6.54003 14.6997L2.25003 10.4997C2.18521 10.4354 2.13946 10.3544 2.11783 10.2656C2.09621 10.1769 2.09956 10.0839 2.12751 9.99697C2.15545 9.91002 2.20691 9.8325 2.27619 9.77298C2.34547 9.71346 2.42986 9.67427 2.52003 9.65975L8.52003 8.78975C8.59844 8.7775 8.67276 8.74658 8.73672 8.69959C8.80068 8.6526 8.85241 8.59092 8.88753 8.51975L11.565 3.08975C11.6076 3.00994 11.6712 2.94331 11.7489 2.89711C11.8267 2.8509 11.9156 2.82688 12.0061 2.82765C12.0965 2.82843 12.185 2.85396 12.2619 2.90149C12.3389 2.94902 12.4013 3.01672 12.4425 3.09725Z" fill="#F66F4D"/>
</svg>
