<svg width="88" height="16" viewBox="0 0 88 16" fill="none" xmlns="http://www.w3.org/2000/svg">
<path d="M88 5.88272L82.1863 5.5005L79.9968 0L77.8073 5.5005L72 5.88272L76.4542 9.66478L74.9926 15.4019L79.9968 12.2388L85.0011 15.4019L83.5395 9.66478L88 5.88272Z" fill="#EF810A"/>
<path d="M70 5.88272L64.1863 5.5005L61.9968 0L59.8073 5.5005L54 5.88272L58.4542 9.66478L56.9926 15.4019L61.9968 12.2388L67.0011 15.4019L65.5395 9.66478L70 5.88272Z" fill="#EF810A"/>
<path d="M52 5.88272L46.1863 5.5005L43.9968 0L41.8073 5.5005L36 5.88272L40.4542 9.66478L38.9926 15.4019L43.9968 12.2388L49.0011 15.4019L47.5395 9.66478L52 5.88272Z" fill="#EF810A"/>
<path d="M34 5.88272L28.1863 5.5005L25.9968 0L23.8073 5.5005L18 5.88272L22.4542 9.66478L20.9926 15.4019L25.9968 12.2388L31.0011 15.4019L29.5395 9.66478L34 5.88272Z" fill="#EF810A"/>
<path d="M16 5.88272L10.1863 5.5005L7.99681 0L5.80734 5.5005L0 5.88272L4.45419 9.66478L2.99256 15.4019L7.99681 12.2388L13.0011 15.4019L11.5395 9.66478L16 5.88272Z" fill="#EF810A"/>
</svg>
